<svg width="151" height="62" viewBox="0 0 151 62" fill="none" xmlns="http://www.w3.org/2000/svg">
<g clip-path="url(#clip0_1123_2072)">
<mask id="mask0_1123_2072" style="mask-type:luminance" maskUnits="userSpaceOnUse" x="7" y="16" width="134" height="29">
<path d="M140.19 16.8877H7.69336V44.732H140.19V16.8877Z" fill="white"/>
</mask>
<g mask="url(#mask0_1123_2072)">
<path d="M32.2743 20.151C29.6472 17.5337 26.2321 16.8877 21.6155 16.8877C16.9989 16.8877 13.5824 17.5267 10.9567 20.151C8.33099 22.7754 7.69336 26.1933 7.69336 30.8098C7.69336 35.4264 8.3296 38.8457 10.9567 41.4686C13.5838 44.0916 16.9947 44.732 21.6155 44.732C26.2363 44.732 29.6486 44.093 32.2743 41.4686C34.9 38.8443 35.5377 35.4264 35.5377 30.8098C35.5377 26.1933 34.907 22.774 32.2743 20.151Z" fill="#959595"/>
<path d="M18.6635 30.0984C18.1066 29.5415 17.9771 28.8273 17.9771 27.8556C17.9771 26.8838 18.1163 26.1668 18.6635 25.6155C19.2106 25.0642 19.9332 24.9291 20.9035 24.9291C21.8739 24.9291 22.5923 25.0684 23.1464 25.6155C23.7005 26.1626 23.8328 26.8852 23.8328 27.8556C23.8328 28.8259 23.7033 29.5457 23.1464 30.0984C22.5895 30.6511 21.8767 30.7848 20.9035 30.7848C20.795 30.7848 20.6877 30.7848 20.5847 30.7848L23.2174 33.4175C24.0141 33.249 24.7454 32.8546 25.3238 32.2814C26.4125 31.1941 26.6757 29.7754 26.6757 27.8625C26.6757 25.9496 26.4139 24.5323 25.3238 23.4436C24.2337 22.3549 22.8178 22.0918 20.9035 22.0918C18.9892 22.0918 17.5775 22.3507 16.486 23.4381C15.3945 24.5254 15.1328 25.9441 15.1328 27.857V39.5349H17.9785V33.4356L24.0778 39.5349H28.0999L18.6649 30.0998L18.6635 30.0984Z" fill="white"/>
<path d="M46.1986 33.0069H45.5888V39.0003H42.498V24.3821H48.4706C51.6031 24.3821 53.5801 26.192 53.5801 28.6979C53.5801 30.9255 52.0041 32.5961 49.48 32.9456L53.8321 39.0017H50.3627L46.1986 33.0069ZM45.5888 30.8002H48.3857C49.7529 30.8002 50.5311 30.0846 50.5311 28.9708C50.5311 27.857 49.7529 27.1206 48.3857 27.1206H45.5888V30.8016V30.8002Z" fill="#959595"/>
<path d="M60.275 36.6864C61.6421 36.6864 62.3354 36.2033 62.8185 35.3193L65.1923 36.8966C64.3305 38.158 62.9007 39.2732 60.1886 39.2732C56.5926 39.2732 54.2578 36.7672 54.2578 33.469C54.2578 30.1709 56.8028 27.6663 59.9784 27.6663C63.5522 27.6663 65.6754 30.4632 65.6754 33.2351C65.6813 33.6287 65.6604 34.0222 65.6127 34.4129H57.3095C57.6743 35.8678 58.802 36.6864 60.275 36.6864ZM62.7559 32.3706C62.4621 30.9185 61.4945 30.0149 60.0647 30.0149C58.6349 30.0149 57.5838 30.8503 57.2678 32.3706H62.7559Z" fill="#959595"/>
<path d="M78.3183 23.6288V39.0003H75.4378V37.8642C74.6178 38.7483 73.4622 39.2732 72.0324 39.2732C68.8303 39.2732 66.5234 36.7672 66.5234 33.469C66.5234 30.1709 68.7733 27.6663 71.9531 27.6663C73.2771 27.6663 74.3922 28.1076 75.2123 28.8858V23.6274H78.3239L78.3183 23.6288ZM75.3334 33.4704C75.3334 31.6605 74.1764 30.4075 72.4738 30.4075C70.7711 30.4075 69.6142 31.712 69.6142 33.4704C69.6142 35.2288 70.8128 36.518 72.4738 36.518C74.1347 36.518 75.3334 35.2789 75.3334 33.4704Z" fill="#959595"/>
<path d="M93.5627 39.0003L92.8276 28.9277L89.6729 38.5172H87.0862L83.9314 28.911L83.1754 39.0045H80.2949L81.3461 24.3863H84.2697V24.4057L84.9839 24.3835L88.3893 34.7081L91.7751 24.3821L92.4893 24.4044V24.3821H95.3907L96.4641 39.0003H93.5627Z" fill="#959595"/>
<path d="M103.756 36.6864C105.123 36.6864 105.816 36.2033 106.299 35.3193L108.676 36.8966C107.814 38.158 106.384 39.2732 103.664 39.2732C100.068 39.2732 97.7344 36.7672 97.7344 33.469C97.7344 30.1709 100.278 27.6663 103.454 27.6663C107.029 27.6663 109.152 30.4632 109.152 33.2351C109.158 33.6287 109.137 34.0222 109.089 34.4129H100.792C101.149 35.8678 102.284 36.6864 103.756 36.6864ZM106.237 32.3706C105.941 30.9185 104.975 30.0149 103.545 30.0149C102.116 30.0149 101.065 30.8503 100.749 32.3706H106.237Z" fill="#959595"/>
<path d="M121.8 23.6288V39.0003H118.92V37.8642C118.098 38.7483 116.943 39.2732 115.513 39.2732C112.311 39.2732 110.004 36.7672 110.004 33.469C110.004 30.1709 112.254 27.6663 115.434 27.6663C116.758 27.6663 117.873 28.1076 118.691 28.8858V23.6274H121.804L121.8 23.6288ZM118.815 33.4704C118.815 31.6605 117.658 30.4075 115.954 30.4075C114.25 30.4075 113.095 31.712 113.095 33.4704C113.095 35.2288 114.293 36.5194 115.954 36.5194C117.615 36.5194 118.815 35.2789 118.815 33.4704Z" fill="#959595"/>
<path d="M123.422 24.322C123.422 23.1873 124.325 22.3464 125.463 22.3464C126.6 22.3464 127.482 23.1818 127.482 24.322C127.482 25.4622 126.598 26.2989 125.463 26.2989C124.328 26.2989 123.422 25.4775 123.422 24.322ZM123.885 27.9181H127.005V39.0001H123.885V27.9181Z" fill="#959595"/>
<path d="M140.19 27.918V39.0001H137.308V37.7805C136.509 38.7272 135.359 39.273 133.902 39.273C130.706 39.273 128.393 36.767 128.393 33.4688C128.393 30.1706 130.706 27.854 133.902 27.854C135.354 27.854 136.511 28.3594 137.308 29.2629V27.918H140.19ZM137.205 33.4688C137.205 31.6589 136.048 30.4059 134.346 30.4059C132.643 30.4059 131.486 31.7104 131.486 33.4688C131.486 35.2272 132.683 36.5178 134.346 36.5178C136.008 36.5178 137.205 35.2773 137.205 33.4688Z" fill="#959595"/>
</g>
</g>
<defs>
<clipPath id="clip0_1123_2072">
<rect width="132.497" height="27.8443" fill="white" transform="translate(7.69336 16.8877)"/>
</clipPath>
</defs>
</svg>
