<svg width="64" height="62" viewBox="0 0 64 62" fill="none" xmlns="http://www.w3.org/2000/svg">
<g clip-path="url(#clip0_1173_2434)">
<path fill-rule="evenodd" clip-rule="evenodd" d="M10.9176 52.3617L7.41543 60.9064C7.40244 60.9409 7.37968 60.9708 7.34994 60.9925C7.3202 61.0142 7.28476 61.0268 7.24798 61.0287C7.1358 61.0412 7.00854 61.0504 6.86788 61.0571C6.72723 61.0638 6.5849 61.0663 6.44006 61.0663C6.39535 61.0683 6.35123 61.0556 6.31437 61.0302C6.27751 61.0048 6.24992 60.9681 6.23578 60.9257L2.94547 52.252L1.86629 60.8972C1.85373 60.9726 1.7968 61.0127 1.69884 61.0194C1.60089 61.0261 1.44767 61.0429 1.28023 61.0521C1.11278 61.0613 0.940315 61.0663 0.759474 61.0663C0.670728 61.0663 0.627192 61.032 0.627192 60.9633C0.626027 60.9315 0.629124 60.8997 0.636402 60.8687L2.46825 50.8965L2.16769 50.0752C2.15575 50.045 2.14896 50.013 2.1476 49.9806C2.1476 49.881 2.21039 49.8215 2.33514 49.8023C2.4356 49.7839 2.55281 49.7663 2.68761 49.7504C2.8224 49.7345 2.95385 49.7211 3.0811 49.7085C3.20836 49.6959 3.33227 49.6867 3.43358 49.68C3.53488 49.6733 3.61944 49.6717 3.66884 49.6717C3.69782 49.6698 3.72688 49.6738 3.75434 49.6833C3.78179 49.6927 3.80708 49.7076 3.82875 49.7269C3.87229 49.7737 3.90716 49.8278 3.93173 49.8868L7.29403 58.7372L10.7401 50.8496L10.6455 50.071C10.6367 50.0469 10.6335 50.0212 10.6362 49.9957C10.6346 49.9461 10.6523 49.8977 10.6855 49.8609C10.7188 49.824 10.7651 49.8015 10.8146 49.7981C10.915 49.7797 11.0306 49.7621 11.162 49.7462C11.2935 49.7303 11.4224 49.7169 11.5471 49.7043C11.6719 49.6918 11.7866 49.6825 11.8896 49.6759C11.9925 49.6692 12.0704 49.6675 12.1198 49.6675C12.2764 49.6675 12.3634 49.7386 12.3827 49.8826L13.6603 60.6435C13.6657 60.6638 13.6687 60.6846 13.6695 60.7055V60.7473C13.6719 60.7727 13.6692 60.7983 13.6614 60.8225C13.6537 60.8468 13.6411 60.8692 13.6244 60.8885C13.6077 60.9077 13.5873 60.9234 13.5644 60.9345C13.5415 60.9457 13.5166 60.9521 13.4912 60.9533C13.3849 60.9726 13.2626 60.9893 13.1245 61.0052C12.9863 61.0211 12.8524 61.0337 12.7209 61.0429C12.5895 61.0521 12.4698 61.0588 12.3601 61.0613C12.2504 61.0638 12.17 61.0663 12.1198 61.0663C12.0706 61.0679 12.0218 61.0567 11.9783 61.0337C11.9597 61.0222 11.9441 61.0063 11.9329 60.9875C11.9217 60.9687 11.9151 60.9475 11.9139 60.9257L10.9176 52.3617Z" fill="#959595"/>
<path fill-rule="evenodd" clip-rule="evenodd" d="M17.8206 59.4887C17.8192 59.6061 17.8236 59.7234 17.834 59.8404C17.8384 59.9122 17.8643 59.9811 17.9086 60.0379C17.9632 60.0906 18.0346 60.1223 18.1103 60.1275C18.2416 60.1414 18.3735 60.1475 18.5055 60.1459H19.7153C20.2176 60.1459 20.6248 60.1351 20.9368 60.1133C21.2153 60.1002 21.4876 60.0265 21.7347 59.8973C21.974 59.7543 22.1729 59.5526 22.3124 59.3112C22.5268 58.9489 22.7132 58.5708 22.87 58.1801L23.3405 58.2831C23.3327 58.3954 23.3187 58.5072 23.2986 58.618C23.2702 58.7994 23.2342 59.0107 23.1906 59.2518C23.1471 59.4929 23.096 59.739 23.0399 59.9885C22.9838 60.238 22.9277 60.4591 22.8725 60.6466C22.8426 60.7433 22.7811 60.8273 22.698 60.8851C22.6149 60.9429 22.5148 60.9712 22.4137 60.9656C22.182 60.9656 21.9066 60.9639 21.5873 60.9606L20.5199 60.9589L19.264 60.9497C18.8175 60.9463 18.3495 60.9447 17.86 60.9447H16.2986C16.2641 60.9486 16.2292 60.9429 16.1979 60.9281C16.1665 60.9133 16.1399 60.8901 16.1211 60.8609C16.0912 60.8147 16.0747 60.7611 16.0734 60.706V51.6849C16.0734 51.3657 16.0014 51.1544 15.8573 51.0511C15.7001 50.9439 15.5126 50.8896 15.3224 50.8963C15.1874 50.8968 15.0526 50.9063 14.9188 50.9247L14.8594 50.4098C14.9908 50.3855 15.1825 50.3537 15.4329 50.3161C15.6832 50.2784 15.9444 50.2415 16.2165 50.2039C16.4886 50.1662 16.7523 50.1344 17.0044 50.1093C17.2564 50.0841 17.4573 50.0724 17.6021 50.0724H21.0205C21.2307 50.0724 21.4542 50.0724 21.6861 50.0674C21.918 50.0624 22.1742 50.0599 22.4564 50.0532C22.4767 50.0506 22.4974 50.0523 22.5171 50.0581C22.5368 50.0639 22.5551 50.0737 22.5708 50.0869C22.5865 50.1001 22.5994 50.1164 22.6085 50.1348C22.6176 50.1532 22.6228 50.1733 22.6238 50.1938C22.6314 50.2817 22.6389 50.3973 22.6481 50.5413C22.6573 50.6853 22.6648 50.8418 22.6707 51.011C22.6766 51.1801 22.6858 51.3525 22.695 51.5275C22.7042 51.7025 22.7117 51.8624 22.7184 52.0156C22.7251 52.1688 22.7293 52.2944 22.7327 52.4008C22.736 52.5071 22.7377 52.5732 22.7377 52.5983L22.268 52.6444C22.1901 52.2916 22.0817 51.9462 21.944 51.6121C21.8581 51.3976 21.7129 51.2121 21.5254 51.0771C21.3319 50.9563 21.111 50.8866 20.8832 50.8745C20.6226 50.8527 20.286 50.8418 19.8735 50.8418H18.2242C18.144 50.8409 18.0638 50.8439 17.9839 50.851C17.941 50.8534 17.9001 50.8699 17.8675 50.8979C17.8402 50.9276 17.825 50.9664 17.8248 51.0068C17.8248 51.0528 17.8248 51.1173 17.8248 51.1985V55.002C18.3372 54.9769 18.808 54.9532 19.2372 54.9309L20.3541 54.8756L21.1202 54.8371C21.3144 54.8279 21.4333 54.8229 21.4768 54.8229C21.6518 54.8229 21.7397 54.9175 21.7397 55.105C21.7397 55.2272 21.7335 55.3493 21.7213 55.4709C21.709 55.5964 21.6931 55.7312 21.6736 55.8752L17.8223 55.7438L17.8206 59.4887Z" fill="#959595"/>
<path fill-rule="evenodd" clip-rule="evenodd" d="M25.4543 60.944C25.3036 60.944 25.229 60.8661 25.229 60.7096V51.4414C25.229 51.1225 25.1596 50.9106 25.0214 50.8077C24.8651 50.699 24.6775 50.6446 24.4873 50.6528C24.3492 50.6537 24.2114 50.6629 24.0745 50.6804L24.0176 50.1739C24.7186 50.055 25.4277 49.9596 26.145 49.8876C26.8611 49.8156 27.5803 49.7795 28.3 49.7795C28.8876 49.7789 29.4747 49.8133 30.0582 49.8825C30.6062 49.9461 31.1467 50.0625 31.6723 50.23C32.1605 50.3847 32.6263 50.6025 33.058 50.878C33.4772 51.146 33.8457 51.4861 34.1463 51.8827C34.4633 52.3105 34.703 52.7905 34.8546 53.3009C35.0325 53.9138 35.1172 54.55 35.1058 55.188C35.1058 56.133 34.9384 56.9733 34.6035 57.7089C34.2819 58.4267 33.8043 59.0637 33.2053 59.5734C32.5784 60.0964 31.8534 60.4889 31.0729 60.728C30.2026 60.9993 29.2953 61.1338 28.3837 61.1265C28.1016 61.1265 27.8529 61.1164 27.6369 61.098C27.4209 61.0796 27.2066 61.0587 26.9939 61.0369C26.7813 61.0151 26.5535 60.9942 26.3133 60.9758C26.073 60.9574 25.7858 60.9473 25.4543 60.9473V60.944ZM26.9747 60.1905C27.2126 60.2472 27.4544 60.2864 27.698 60.3077C27.9425 60.3303 28.1953 60.3403 28.4582 60.3403C29.1435 60.3519 29.8249 60.2358 30.4676 59.9979C31.0298 59.7869 31.537 59.4515 31.9511 59.0167C32.3632 58.5713 32.6752 58.0429 32.8662 57.467C33.0838 56.8071 33.1902 56.1156 33.181 55.4208C33.1896 54.7504 33.0808 54.0837 32.8595 53.4508C32.6564 52.8785 32.3342 52.3557 31.9143 51.917C31.4855 51.4788 30.9664 51.1394 30.3931 50.9224C29.7364 50.677 29.0395 50.5568 28.3385 50.5682H27.8588C27.6394 50.5609 27.4201 50.5846 27.2074 50.6385C27.0534 50.6854 26.9763 50.8121 26.9763 51.0187L26.9747 60.1905Z" fill="#959595"/>
<path fill-rule="evenodd" clip-rule="evenodd" d="M36.0547 50.1925C36.3896 50.1305 36.7105 50.0775 37.0175 50.0334C37.3206 49.989 37.5902 49.9547 37.8246 49.9296C38.059 49.9045 38.2549 49.8861 38.4106 49.8735C38.5664 49.8609 38.6677 49.8542 38.7112 49.8542C38.911 49.8542 39.0112 49.9544 39.0118 50.1548V60.6905C39.0147 60.7227 39.0112 60.7552 39.0014 60.786C38.9915 60.8168 38.9756 60.8453 38.9545 60.8699C38.9334 60.8944 38.9076 60.9144 38.8786 60.9288C38.8496 60.9431 38.818 60.9515 38.7857 60.9534C38.6794 60.9726 38.563 60.9894 38.4332 61.0053C38.3035 61.0212 38.1821 61.0337 38.0582 61.043C37.9343 61.0522 37.8237 61.0589 37.7233 61.0614C37.6228 61.0639 37.5433 61.0664 37.493 61.0664C37.3423 61.0664 37.2678 60.9885 37.2678 60.832V51.5387C37.2721 51.3946 37.2546 51.2507 37.2159 51.1118C37.1886 51.0143 37.1371 50.9253 37.0661 50.8531C36.9995 50.7907 36.9188 50.7456 36.8308 50.7216C36.7314 50.6954 36.6289 50.6827 36.526 50.6839C36.3877 50.6843 36.2495 50.6938 36.1125 50.7124L36.0547 50.1925Z" fill="#959595"/>
<path fill-rule="evenodd" clip-rule="evenodd" d="M47.1446 49.7795C47.891 49.77 48.6327 49.8986 49.3323 50.1588C49.961 50.3956 50.5302 50.7671 51.0001 51.2472C51.4748 51.7453 51.8376 52.339 52.0642 52.9886C52.325 53.7402 52.4522 54.5316 52.4401 55.327C52.4401 56.2787 52.3006 57.1206 52.0215 57.8529C51.7658 58.547 51.3598 59.176 50.8326 59.6948C50.3033 60.2024 49.6708 60.5899 48.9782 60.8309C48.2008 61.0995 47.3827 61.2312 46.5603 61.2203C45.8115 61.2308 45.0677 61.0987 44.3684 60.8309C43.7358 60.5866 43.1643 60.2068 42.6939 59.7183C42.2196 59.2091 41.8594 58.6045 41.6374 57.945C41.3795 57.1865 41.254 56.3893 41.2665 55.5882C41.2665 54.6433 41.406 53.8077 41.6851 53.0816C41.9385 52.3924 42.3447 51.7696 42.8731 51.2598C43.4046 50.7637 44.0368 50.3881 44.7267 50.1588C45.5061 49.8997 46.3234 49.7729 47.1446 49.7837V49.7795ZM46.6733 50.5682C46.0593 50.5682 45.5335 50.6935 45.0959 50.9441C44.663 51.1893 44.2943 51.5336 44.0201 51.9488C43.733 52.3912 43.5259 52.8806 43.4081 53.3947C43.2753 53.9514 43.2093 54.5219 43.2113 55.0943C43.2105 55.748 43.2813 56.3999 43.4223 57.0383C43.549 57.6412 43.7753 58.2187 44.0921 58.7471C44.39 59.2395 44.7985 59.6557 45.2852 59.9627C45.7735 60.2725 46.3618 60.4274 47.05 60.4274C47.664 60.4274 48.1898 60.2976 48.6274 60.0381C49.0614 59.7823 49.4296 59.4285 49.7024 59.005C49.9911 58.5527 50.1993 58.0539 50.3177 57.5306C50.4499 56.969 50.5159 56.3938 50.5145 55.8168C50.5152 55.1691 50.4444 54.5233 50.3035 53.8912C50.1772 53.2969 49.9507 52.7284 49.6337 52.21C49.3345 51.7261 48.9258 51.3192 48.4407 51.022C47.9523 50.7217 47.364 50.5716 46.6758 50.5716L46.6733 50.5682Z" fill="#959595"/>
<path fill-rule="evenodd" clip-rule="evenodd" d="M55.5776 49.6949C55.6069 49.6932 55.6363 49.6977 55.6637 49.7083C55.6912 49.7188 55.716 49.7351 55.7367 49.7561C55.7735 49.7971 55.8204 49.8482 55.8681 49.9109L62.3558 58.5218L62.1222 50.0985C62.1222 50.0231 62.1716 49.983 62.272 49.9763C62.3851 49.9578 62.5349 49.9386 62.7233 49.9202C62.9117 49.9017 63.0917 49.8917 63.2675 49.8917C63.3671 49.8917 63.4182 49.9386 63.4182 50.0332L63.1913 59.1883V60.9063C63.1913 60.9816 63.1428 61.0226 63.0415 61.0285C62.9402 61.0343 62.8028 61.0503 62.6614 61.057C62.5199 61.0636 62.3784 61.0662 62.2344 61.0662C62.1885 61.0689 62.1429 61.0575 62.1038 61.0335C62.0654 61.0041 62.0332 60.9674 62.0092 60.9255L55.4738 52.2518L55.7082 60.8903C55.7082 60.9657 55.658 61.0059 55.5583 61.0126C55.4467 61.031 55.2918 61.0466 55.0937 61.0595C54.8955 61.0723 54.7186 61.0784 54.5629 61.0779C54.4624 61.0779 54.4122 61.031 54.4122 60.9372L54.6474 51.1526L53.8738 50.0985C53.8609 50.0848 53.8509 50.0686 53.8444 50.0509C53.8379 50.0332 53.8351 50.0143 53.8361 49.9955C53.8361 49.9118 53.8931 49.8574 54.0036 49.8281C54.1032 49.8105 54.2313 49.7929 54.3879 49.777C54.5444 49.7611 54.7018 49.7477 54.8626 49.7351C55.0233 49.7226 55.1673 49.7125 55.2979 49.7067C55.4286 49.7008 55.5265 49.6949 55.5776 49.6949Z" fill="#959595"/>
<path fill-rule="evenodd" clip-rule="evenodd" d="M33.8106 9.27776C33.8106 9.63129 33.7058 9.97688 33.5094 10.2708C33.3129 10.5648 33.0338 10.7939 32.7072 10.9292C32.3805 11.0645 32.0211 11.0999 31.6744 11.0309C31.3277 10.9619 31.0092 10.7917 30.7592 10.5417C30.5092 10.2917 30.339 9.97322 30.27 9.62648C30.201 9.27974 30.2364 8.92034 30.3717 8.59372C30.507 8.2671 30.7361 7.98794 31.0301 7.79153C31.324 7.59512 31.6696 7.49028 32.0231 7.49028C32.4971 7.4905 32.9516 7.6789 33.2868 8.01407C33.622 8.34924 33.8104 8.80376 33.8106 9.27776ZM50.1223 4.64706C50.1307 3.79727 49.8586 3.42973 49.0716 3.19196C36.4537 -0.628308 27.7759 -0.15695 15.4711 3.27568C14.5502 3.53438 13.9022 3.92202 13.9122 4.64287L13.9507 19.1018C13.9106 32.5661 18.7472 34.7194 31.3592 43.4165C31.6556 43.6317 32.4476 43.6736 32.8101 43.4165C41.7115 37.3709 50.3291 30.9695 50.1307 19.1035C50.0511 14.2844 50.0846 9.46363 50.1223 4.64287V4.64706ZM32.0231 6.15574C24.4487 6.15574 18.3077 12.2675 18.3077 19.8025C18.3063 21.6812 18.6949 23.5397 19.4489 25.2604C20.2029 26.9812 21.3059 28.5266 22.688 29.799C22.5742 28.4486 22.4159 26.2266 22.4536 24.63C22.4838 23.334 21.4791 21.6905 21.2396 20.8859C20.8478 19.5664 21.2982 19.4007 21.6105 18.8422C22.1606 17.8568 25.9951 12.3002 26.4137 11.6178C26.9947 10.6667 28.7856 10.9673 28.0597 12.3236C27.0458 14.2166 24.7108 17.9146 24.0544 19.44C23.5964 20.5125 24.5458 22.3829 25.3755 20.7059C26.2965 18.8389 27.6009 17.4148 28.2355 16.493C28.8509 15.598 29.8639 15.7839 29.6253 16.7559C29.2259 18.3927 27.7993 20.258 27.8085 24.0498L28.0547 32.8633C28.9434 33.1306 29.8571 33.3065 30.7815 33.3882V23.2394C30.7822 23.0023 30.8767 22.7753 31.0445 22.6078C31.2122 22.4404 31.4395 22.3463 31.6765 22.346H32.3388C32.5755 22.3465 32.8025 22.4407 32.9699 22.6082C33.1374 22.7756 33.2316 23.0026 33.2321 23.2394V33.3949C34.1688 33.3146 35.0947 33.1375 35.9949 32.8666L36.2419 24.0531C36.252 20.2613 34.8236 18.396 34.426 16.7592C34.1882 15.7872 35.1987 15.6013 35.8141 16.4963C36.4487 17.4173 37.7539 18.8406 38.6749 20.7093C39.5021 22.3837 40.4548 20.5159 39.9952 19.4434C39.3397 17.9146 37.0046 14.2166 35.9882 12.3269C35.264 10.9706 37.0549 10.6701 37.6376 11.6212C38.0562 12.3035 41.8865 17.8602 42.4366 18.8456C42.7472 19.404 43.1993 19.5698 42.8074 20.8893C42.5672 21.6938 41.5625 23.3373 41.5943 24.6333C41.6311 26.2299 41.4729 28.4519 41.3574 29.8024C42.7399 28.5304 43.8432 26.9854 44.5977 25.2649C45.3521 23.5445 45.7412 21.6862 45.7403 19.8076C45.7394 12.2658 39.5984 6.15574 32.0231 6.15574Z" fill="#959595"/>
</g>
<defs>
<clipPath id="clip0_1173_2434">
<rect width="62.792" height="60.7048" fill="white" transform="translate(0.626953 0.51123)"/>
</clipPath>
</defs>
</svg>
