<svg width="151" height="47" viewBox="0 0 151 47" fill="none" xmlns="http://www.w3.org/2000/svg">
<path d="M44.3093 12.2581L22.457 23.5266V46.0593L44.3093 35.4756V12.2581Z" fill="#FCBD2C"/>
<path d="M44.3092 12.3547L24.5859 24.5495L44.3092 15.1861" fill="#F18331"/>
<path d="M44.3092 15.1858L24.5859 27.3762L44.3092 18.0128" fill="#F18331"/>
<path d="M44.3092 17.9646L24.5859 30.1594L44.3092 20.7916" fill="#F18331"/>
<path d="M44.3092 20.7917L24.5859 32.9865L44.3092 23.6231" fill="#F18331"/>
<path d="M44.3092 23.6233L24.5859 35.8181L44.3092 26.4503" fill="#F18331"/>
<path d="M44.3092 26.4504L24.5859 38.6452L44.3092 29.2818" fill="#F18331"/>
<path d="M44.3092 29.2332L24.5859 41.4236L44.3092 32.0602" fill="#F18331"/>
<path d="M44.3092 32.0603L24.5859 44.2551L44.3092 34.8873" fill="#F18331"/>
<path d="M0.605469 12.2581V12.3546L20.3287 24.5494L0.605469 15.186L20.3287 27.3764L0.943481 18.1755L20.3287 30.1595L0.605469 20.7918L20.3287 32.9866L0.605469 23.6232L20.3287 35.818L0.605469 26.4502L20.3287 38.645L0.947871 29.4396L20.3287 41.4237L0.605469 32.0603L20.3287 44.2551L0.605469 34.8873V35.4756L22.4578 46.0593V23.5266L0.605469 12.2581Z" fill="#FEEC2F"/>
<path d="M43.5199 11.9419V11.9507L24.1215 21.9637L41.1011 10.6732L40.7675 10.4976L24.0249 19.1367L38.6692 9.39581L38.0502 9.07097L23.9327 16.358L36.2812 8.14473L35.2847 7.62234L23.8405 13.531L33.8536 6.87169L32.5235 6.17372L23.7484 10.704L31.4261 5.59866L29.7623 4.72509L23.6518 7.87695L28.9941 4.32123L27.0451 3.29842L23.5596 5.09822L26.6061 3.07015L24.2795 1.84979L23.4674 2.27121L24.1785 1.79712L22.4578 0.892822L0.605469 12.3545L22.4578 23.6231L44.31 12.3545L43.5199 11.9419Z" fill="#0087C1"/>
<path d="M48.2598 12.4125H50.6004V24.487H53.137V12.4125H55.4777V10.1079H48.2598V12.4125Z" fill="white"/>
<path d="M65.6731 22.6309V20.4604C65.6731 18.9601 65.2297 17.9548 64.3584 17.4547C65.2142 16.9391 65.6525 15.975 65.6525 14.6036V13.5003C65.6881 13.0413 65.6321 12.5797 65.4879 12.1425C65.3436 11.7053 65.1139 11.3011 64.8121 10.9534C64.2553 10.3966 63.3737 10.113 62.1827 10.113H58.6562V24.487H61.1877V18.7539H61.8167C62.0046 18.7319 62.1952 18.753 62.3738 18.8155C62.5525 18.878 62.7145 18.9804 62.8478 19.1148C63.0888 19.4972 63.1975 19.9483 63.1571 20.3985V22.6103C63.1366 23.2105 63.2079 23.8103 63.3685 24.389L63.4046 24.487H66.0185L65.9309 24.2859C65.7403 23.7557 65.6528 23.194 65.6731 22.6309ZM61.1877 12.4125H62.1208C62.5488 12.4125 63.1159 12.5517 63.1159 13.7168V15.1037C63.1498 15.472 63.045 15.8397 62.822 16.1348C62.6988 16.2417 62.5556 16.3231 62.4007 16.3744C62.2459 16.4257 62.0824 16.4459 61.9198 16.4339H61.1877V12.4125Z" fill="white"/>
<path d="M71.0432 10.1079L68.7129 24.487H71.069L71.4557 21.9092H73.9562L74.3429 24.487H76.9207L74.5749 10.1079H71.0432ZM73.6211 19.7283H71.8011L72.7188 13.7272L73.6211 19.7283Z" fill="white"/>
<path d="M85.2062 17.5991L83.1594 10.1079H80.0918V24.487H82.4015V15.2275L84.9329 24.487H87.4953V10.1079H85.2062V17.5991Z" fill="white"/>
<path d="M96.3332 17.3059C95.895 16.8935 95.4619 16.4965 95.0392 16.1253C94.6294 15.7665 94.2704 15.3537 93.9719 14.8982C93.6993 14.483 93.5525 13.9978 93.5492 13.5011C93.5492 12.3874 94.106 12.2586 94.5236 12.2586C94.9412 12.2586 95.498 12.3874 95.498 13.5011V14.2332H97.9109V13.6351C97.9736 12.6495 97.6604 11.6767 97.0344 10.9129C96.3209 10.2882 95.4049 9.94385 94.4566 9.94385C93.5083 9.94385 92.5922 10.2882 91.8788 10.9129C91.2527 11.6767 90.9395 12.6495 91.0023 13.6351C90.9958 14.3574 91.1545 15.0716 91.4663 15.7231C91.7474 16.3033 92.1317 16.8274 92.6005 17.2698C93.0336 17.6771 93.4667 18.0741 93.8946 18.4505C94.3101 18.8103 94.6729 19.2268 94.9721 19.6878C95.2447 20.1031 95.3915 20.5883 95.3949 21.085C95.3949 21.9202 95.0752 22.312 94.3638 22.312C93.6523 22.312 93.3326 21.9202 93.3326 21.085V19.9508H90.9198V20.9819C90.8572 21.9725 91.1784 22.9492 91.8169 23.7092C92.5391 24.3282 93.459 24.6684 94.4102 24.6684C95.3614 24.6684 96.2812 24.3282 97.0035 23.7092C97.6419 22.9492 97.9631 21.9725 97.9005 20.9819C97.9026 20.2684 97.744 19.5635 97.4365 18.9196C97.171 18.3186 96.797 17.7715 96.3332 17.3059Z" fill="white"/>
<path d="M104.711 9.94861C104.232 9.91794 103.753 9.98892 103.304 10.1569C102.856 10.3248 102.448 10.5859 102.107 10.923C101.471 11.6822 101.152 12.6569 101.215 13.6452V20.9611C101.151 21.951 101.47 22.9276 102.107 23.6884C102.829 24.3073 103.749 24.6476 104.7 24.6476C105.651 24.6476 106.571 24.3073 107.294 23.6884C107.932 22.9284 108.253 21.9517 108.191 20.9611V16.3468H104.757V18.6565H105.788V21.1054C105.788 21.9406 105.463 22.3325 104.757 22.3325C104.051 22.3325 103.726 21.9406 103.726 21.1054V13.5008C103.726 12.6553 104.051 12.2583 104.757 12.2583C105.463 12.2583 105.788 12.6553 105.788 13.5008V15.1506H108.201V13.6349C108.26 12.6494 107.939 11.6788 107.304 10.923C106.965 10.5873 106.558 10.3269 106.111 10.159C105.664 9.99112 105.187 9.91942 104.711 9.94861Z" fill="white"/>
<path d="M118.859 22.6309V20.4604C118.859 18.9601 118.415 17.9548 117.544 17.4547C118.405 16.9391 118.838 15.975 118.838 14.6036V13.5003C118.873 13.0417 118.817 12.5808 118.674 12.1437C118.53 11.7067 118.302 11.3023 118.003 10.9534C117.446 10.3966 116.559 10.113 115.368 10.113H111.842V24.487H114.373V18.7539H114.997C115.185 18.7319 115.376 18.753 115.554 18.8155C115.733 18.878 115.895 18.9804 116.028 19.1148C116.269 19.4972 116.378 19.9483 116.338 20.3985V22.6103C116.316 23.2105 116.388 23.8105 116.549 24.389L116.585 24.487H119.194L119.106 24.2859C118.919 23.755 118.835 23.1933 118.859 22.6309ZM114.373 12.4125H115.312C115.734 12.4125 116.307 12.5517 116.307 13.7168V15.1037C116.339 15.4727 116.232 15.8404 116.008 16.1348C115.885 16.2427 115.742 16.3247 115.587 16.3761C115.432 16.4275 115.268 16.4471 115.105 16.4339H114.373V12.4125Z" fill="white"/>
<path d="M125.886 9.94859C125.402 9.91798 124.917 9.98885 124.463 10.1567C124.008 10.3245 123.594 10.5855 123.246 10.923C122.6 11.6733 122.272 12.6465 122.333 13.6349V20.961C122.273 21.9509 122.6 22.9254 123.246 23.6781C123.981 24.3042 124.915 24.6481 125.881 24.6481C126.846 24.6481 127.78 24.3042 128.515 23.6781C129.163 22.9262 129.492 21.9516 129.433 20.961V13.6349C129.494 12.6465 129.167 11.6733 128.52 10.923C128.173 10.5862 127.759 10.3255 127.306 10.1577C126.852 9.98994 126.368 9.91871 125.886 9.94859ZM124.855 13.4957C124.855 12.6501 125.179 12.2532 125.886 12.2532C126.592 12.2532 126.917 12.6501 126.917 13.4957V21.1002C126.917 21.9509 126.592 22.3428 125.886 22.3428C125.179 22.3428 124.855 21.9509 124.855 21.1002V13.4957Z" fill="white"/>
<path d="M137.535 21.1201C137.535 21.9553 137.216 22.342 136.504 22.342C135.793 22.342 135.473 21.9553 135.473 21.1201V10.1077H132.942V20.9809C132.877 21.9718 133.199 22.9493 133.839 23.7082C134.56 24.3268 135.479 24.6668 136.43 24.6668C137.38 24.6668 138.299 24.3268 139.02 23.7082C139.66 22.949 139.982 21.9717 139.917 20.9809V10.1077H137.505L137.535 21.1201Z" fill="white"/>
<path d="M147.119 10.1077H143.67V24.4867H146.201V19.1971H147.119C149.434 19.1971 150.604 17.9752 150.604 15.5881V13.7372C150.604 11.3296 149.434 10.1077 147.119 10.1077ZM146.201 12.4122H147.119C147.25 12.4004 147.382 12.4173 147.506 12.4618C147.63 12.5063 147.742 12.5774 147.836 12.67C148.021 12.9421 148.105 13.2705 148.073 13.598V15.7067C148.105 16.0342 148.021 16.3626 147.836 16.6347C147.742 16.7273 147.63 16.7984 147.506 16.8429C147.382 16.8874 147.25 16.9044 147.119 16.8925H146.201V12.4122Z" fill="white"/>
<path d="M50.1835 29.2044C50.1371 28.5233 50.3487 27.8496 50.7764 27.3175C51.2593 26.8923 51.8807 26.6577 52.5242 26.6577C53.1676 26.6577 53.789 26.8923 54.2719 27.3175C54.6996 27.8496 54.9113 28.5233 54.8648 29.2044V29.5241H53.3645V29.1013C53.3645 28.4363 53.0965 28.1063 52.5654 28.1063C52.0344 28.1063 51.7715 28.4363 51.7715 29.1013C51.7723 29.4789 51.8834 29.8481 52.0911 30.1634C52.3055 30.5003 52.5658 30.8057 52.8644 31.0708C53.1686 31.3389 53.4728 31.6224 53.7821 31.9163C54.1062 32.232 54.37 32.6041 54.5607 33.0145C54.7764 33.4685 54.8857 33.9657 54.8803 34.4684C54.9271 35.1521 54.7093 35.8277 54.2719 36.3553C53.7816 36.7777 53.1559 37.0101 52.5087 37.0101C51.8615 37.0101 51.2358 36.7777 50.7455 36.3553C50.3081 35.8277 50.0903 35.1521 50.1371 34.4684V33.8445H51.6426V34.5663C51.6426 35.2262 51.9158 35.551 52.4675 35.551C53.0191 35.551 53.2924 35.2262 53.2924 34.5663C53.2906 34.1889 53.1796 33.82 52.9727 33.5043C52.7582 33.169 52.4979 32.8653 52.1994 32.602C51.8952 32.3339 51.5858 32.0504 51.2817 31.7565C50.9559 31.4411 50.6904 31.0689 50.498 30.6583C50.2839 30.204 50.1763 29.7067 50.1835 29.2044Z" fill="white"/>
<path d="M58.9137 36.8966V33.5403L56.9082 26.7761H58.5683L59.7851 31.3853L60.9966 26.7761H62.5433L60.5326 33.5403V36.8966H58.9137Z" fill="white"/>
<path d="M64.5833 29.2048C64.5368 28.5236 64.7485 27.85 65.1762 27.3178C65.6599 26.8922 66.2822 26.6575 66.9265 26.6575C67.5708 26.6575 68.1931 26.8922 68.6769 27.3178C69.1023 27.8512 69.3137 28.5239 69.2698 29.2048V29.5244H67.7643V29.1016C67.7643 28.4366 67.4962 28.1066 66.9703 28.1066C66.4445 28.1066 66.1712 28.4366 66.1712 29.1016C66.1721 29.4792 66.2831 29.8484 66.4909 30.1637C66.7053 30.5006 66.9655 30.806 67.2642 31.0711C67.5684 31.3392 67.8726 31.6228 68.1819 31.9166C68.506 32.2334 68.7714 32.6052 68.9656 33.0148C69.1797 33.4692 69.2873 33.9664 69.2801 34.4687C69.3262 35.1515 69.1105 35.8262 68.6769 36.3556C68.1857 36.7784 67.5591 37.011 66.911 37.011C66.263 37.011 65.6364 36.7784 65.1452 36.3556C64.7102 35.8267 64.4927 35.1521 64.5369 34.4687V33.8448H66.0423V34.5666C66.0423 35.2265 66.3156 35.5514 66.8672 35.5514C67.4189 35.5514 67.6921 35.2265 67.6921 34.5666C67.6904 34.1892 67.5794 33.8203 67.3725 33.5046C67.158 33.1693 66.8977 32.8656 66.5991 32.6023C66.2949 32.3342 65.9908 32.0507 65.6814 31.7568C65.3573 31.4411 65.0935 31.069 64.9029 30.6587C64.6847 30.2055 64.5753 29.7077 64.5833 29.2048Z" fill="white"/>
<path d="M71.4668 28.2199V26.7764H76.3801V28.2199H74.72V36.8969H73.1269V28.2199H71.4668Z" fill="white"/>
<path d="M80.3997 28.2197V31.0295H82.5806V32.4783H80.3997V35.4376H83.1477V36.8863H78.8066V26.7761H83.1477V28.2197H80.3997Z" fill="white"/>
<path d="M88.0612 26.7761L89.2161 33.9631L90.3039 26.7761H92.5157V36.8966H91.0102V29.6375L89.9121 36.8966H88.4066L87.2209 29.7406V36.8966H85.834V26.7761H88.0612Z" fill="white"/>
<path d="M95.2174 29.2048C95.1735 28.5239 95.3849 27.8512 95.8103 27.3178C96.2941 26.8922 96.9163 26.6575 97.5607 26.6575C98.205 26.6575 98.8272 26.8922 99.311 27.3178C99.7387 27.85 99.9504 28.5236 99.9039 29.2048V29.5244H98.3984V29.1016C98.3984 28.4366 98.1355 28.1066 97.6045 28.1066C97.0735 28.1066 96.8105 28.4366 96.8105 29.1016C96.8089 29.4796 96.9202 29.8494 97.1302 30.1637C97.3446 30.5006 97.6048 30.806 97.9035 31.0711C98.2077 31.3392 98.5119 31.6228 98.8212 31.9166C99.1453 32.2323 99.4091 32.6045 99.5997 33.0148C99.8154 33.4688 99.9248 33.966 99.9194 34.4687C99.9662 35.1524 99.7484 35.828 99.311 36.3556C98.8207 36.778 98.195 37.0104 97.5478 37.0104C96.9006 37.0104 96.2749 36.778 95.7845 36.3556C95.3471 35.828 95.1293 35.1524 95.1762 34.4687V33.8448H96.6816V34.5666C96.6816 35.2265 96.9549 35.5514 97.5065 35.5514C98.0582 35.5514 98.3263 35.2265 98.3263 34.5666C98.3264 34.1896 98.2171 33.8207 98.0118 33.5046C97.7973 33.1693 97.537 32.8656 97.2384 32.6023C96.9342 32.3342 96.6249 32.0507 96.3207 31.7568C95.995 31.4414 95.7294 31.0693 95.5371 30.6587C95.3213 30.2046 95.212 29.7074 95.2174 29.2048Z" fill="white"/>
<path d="M104.479 36.8966V26.7761H106.072V35.4479H108.686V36.8966H104.479Z" fill="white"/>
<path d="M111.117 35.3655H112.664V36.9122H111.117V35.3655Z" fill="white"/>
<path d="M117.882 26.7761C119.464 26.7761 120.253 27.6062 120.253 29.2766V30.5913C120.253 32.2617 119.464 33.0918 117.882 33.0918H117.129V36.8966H115.541V26.7761H117.882ZM117.882 28.2197H117.129V31.6482H117.882C117.989 31.6561 118.098 31.6408 118.199 31.6035C118.3 31.5661 118.393 31.5076 118.469 31.4317C118.62 31.2168 118.689 30.9556 118.665 30.6944V29.1735C118.689 28.9123 118.62 28.6511 118.469 28.4362C118.393 28.3603 118.3 28.3018 118.199 28.2644C118.098 28.2271 117.989 28.2118 117.882 28.2197Z" fill="white"/>
</svg>
