<svg width="150" height="46" viewBox="0 0 150 46" fill="none" xmlns="http://www.w3.org/2000/svg">
<path d="M43.7048 11.3652L21.8525 22.6338V45.1665L43.7048 34.5827V11.3652Z" fill="#FCBD2C"/>
<path d="M43.7047 11.4619L23.9814 23.6567L43.7047 14.2933" fill="#F18331"/>
<path d="M43.7047 14.293L23.9814 26.4834L43.7047 17.12" fill="#F18331"/>
<path d="M43.7047 17.0718L23.9814 29.2666L43.7047 19.8988" fill="#F18331"/>
<path d="M43.7047 19.8989L23.9814 32.0937L43.7047 22.7303" fill="#F18331"/>
<path d="M43.7047 22.7305L23.9814 34.9253L43.7047 25.5575" fill="#F18331"/>
<path d="M43.7047 25.5576L23.9814 37.7524L43.7047 28.389" fill="#F18331"/>
<path d="M43.7047 28.3403L23.9814 40.5307L43.7047 31.1673" fill="#F18331"/>
<path d="M43.7047 31.1675L23.9814 43.3623L43.7047 33.9945" fill="#F18331"/>
<path d="M0.000976562 11.3652V11.4618L19.7242 23.6566L0.000976562 14.2932L19.7242 26.4836L0.338989 17.2826L19.7242 29.2667L0.000976562 19.899L19.7242 32.0937L0.000976562 22.7304L19.7242 34.9251L0.000976562 25.5574L19.7242 37.7522L0.343379 28.5468L19.7242 40.5309L0.000976562 31.1675L19.7242 43.3623L0.000976562 33.9945V34.5827L21.8533 45.1665V22.6338L0.000976562 11.3652Z" fill="#FEEC2F"/>
<path d="M42.9154 11.0491V11.0578L23.517 21.0709L40.4966 9.78041L40.163 9.60482L23.4204 18.2439L38.0647 8.50299L37.4457 8.17815L23.3282 15.4652L35.6767 7.2519L34.6802 6.72952L23.236 12.6382L33.2491 5.97887L31.919 5.2809L23.1439 9.81114L30.8216 4.70584L29.1578 3.83227L23.0473 6.98413L28.3896 3.42841L26.4406 2.4056L22.9551 4.2054L26.0016 2.17733L23.675 0.95697L22.8629 1.37839L23.5741 0.904293L21.8533 0L0.000976562 11.4617L21.8533 22.7302L43.7056 11.4617L42.9154 11.0491Z" fill="#0087C1"/>
<path d="M47.6553 11.5197H49.9959V23.5942H52.5325V11.5197H54.8732V9.21509H47.6553V11.5197Z" fill="#12110B"/>
<path d="M65.0686 21.7381V19.5676C65.0686 18.0673 64.6252 17.0619 63.7539 16.5618C64.6097 16.0463 65.048 15.0822 65.048 13.7108V12.6075C65.0836 12.1484 65.0277 11.6869 64.8834 11.2497C64.7391 10.8125 64.5094 10.4083 64.2076 10.0606C63.6508 9.50377 62.7692 9.22021 61.5782 9.22021H58.0518V23.5941H60.5832V17.8611H61.2122C61.4002 17.8391 61.5907 17.8601 61.7693 17.9227C61.948 17.9852 62.1101 18.0875 62.2433 18.222C62.4843 18.6044 62.593 19.0555 62.5526 19.5057V21.7175C62.5321 22.3177 62.6034 22.9175 62.764 23.4962L62.8001 23.5941H65.414L65.3264 23.3931C65.1358 22.8629 65.0483 22.3011 65.0686 21.7381ZM60.5832 11.5196H61.5163C61.9443 11.5196 62.5114 11.6588 62.5114 12.824V14.2109C62.5453 14.5792 62.4405 14.9469 62.2175 15.242C62.0943 15.3489 61.9511 15.4303 61.7963 15.4816C61.6414 15.5329 61.478 15.5531 61.3153 15.541H60.5832V11.5196Z" fill="#12110B"/>
<path d="M70.4388 9.21509L68.1084 23.5942H70.4645L70.8512 21.0164H73.3517L73.7384 23.5942H76.3162L73.9704 9.21509H70.4388ZM73.0166 18.8355H71.1966L72.1143 12.8343L73.0166 18.8355Z" fill="#12110B"/>
<path d="M84.6017 16.7062L82.5549 9.21509H79.4873V23.5942H81.797V14.3346L84.3285 23.5942H86.8908V9.21509H84.6017V16.7062Z" fill="#12110B"/>
<path d="M95.7287 16.4131C95.2905 16.0006 94.8574 15.6037 94.4347 15.2325C94.0249 14.8737 93.6659 14.4609 93.3675 14.0054C93.0949 13.5901 92.948 13.105 92.9447 12.6082C92.9447 11.4946 93.5015 11.3657 93.9191 11.3657C94.3367 11.3657 94.8935 11.4946 94.8935 12.6082V13.3403H97.3064V12.7423C97.3692 11.7567 97.056 10.7839 96.4299 10.0201C95.7164 9.39539 94.8004 9.05103 93.8521 9.05103C92.9038 9.05103 91.9877 9.39539 91.2743 10.0201C90.6482 10.7839 90.335 11.7567 90.3978 12.7423C90.3913 13.4646 90.55 14.1788 90.8618 14.8303C91.1429 15.4105 91.5272 15.9346 91.996 16.377C92.4291 16.7843 92.8622 17.1813 93.2901 17.5577C93.7056 17.9175 94.0684 18.334 94.3676 18.795C94.6402 19.2103 94.787 19.6955 94.7904 20.1922C94.7904 21.0274 94.4708 21.4192 93.7593 21.4192C93.0478 21.4192 92.7281 21.0274 92.7281 20.1922V19.0579H90.3153V20.0891C90.2527 21.0797 90.574 22.0564 91.2124 22.8164C91.9347 23.4354 92.8545 23.7756 93.8057 23.7756C94.7569 23.7756 95.6767 23.4354 96.399 22.8164C97.0374 22.0564 97.3587 21.0797 97.296 20.0891C97.2981 19.3755 97.1395 18.6707 96.832 18.0268C96.5665 17.4257 96.1925 16.8787 95.7287 16.4131Z" fill="#12110B"/>
<path d="M104.106 9.05578C103.628 9.02512 103.149 9.0961 102.7 9.26405C102.251 9.432 101.843 9.69312 101.503 10.0302C100.867 10.7894 100.547 11.7641 100.611 12.7524V20.0682C100.547 21.0582 100.866 22.0348 101.503 22.7956C102.225 23.4145 103.145 23.7547 104.096 23.7547C105.047 23.7547 105.967 23.4145 106.689 22.7956C107.328 22.0355 107.649 21.0589 107.586 20.0682V15.4539H104.153V17.7637H105.184V20.2126C105.184 21.0478 104.859 21.4396 104.153 21.4396C103.446 21.4396 103.121 21.0478 103.121 20.2126V12.608C103.121 11.7625 103.446 11.3655 104.153 11.3655C104.859 11.3655 105.184 11.7625 105.184 12.608V14.2578H107.596V12.7421C107.656 11.7566 107.335 10.786 106.699 10.0302C106.36 9.69446 105.954 9.43412 105.507 9.26621C105.06 9.0983 104.583 9.0266 104.106 9.05578Z" fill="#12110B"/>
<path d="M118.254 21.7381V19.5676C118.254 18.0673 117.811 17.0619 116.939 16.5618C117.8 16.0463 118.234 15.0822 118.234 13.7108V12.6075C118.268 12.1489 118.213 11.6879 118.069 11.2509C117.926 10.8139 117.698 10.4094 117.398 10.0606C116.841 9.50377 115.955 9.22021 114.764 9.22021H111.237V23.5941H113.769V17.8611H114.393C114.581 17.8391 114.771 17.8601 114.95 17.9227C115.128 17.9852 115.29 18.0875 115.424 18.222C115.665 18.6044 115.773 19.0555 115.733 19.5057V21.7175C115.712 22.3177 115.783 22.9176 115.944 23.4962L115.98 23.5941H118.589L118.502 23.3931C118.315 22.8622 118.231 22.3005 118.254 21.7381ZM113.769 11.5196H114.707C115.13 11.5196 115.702 11.6588 115.702 12.824V14.2109C115.735 14.5799 115.628 14.9476 115.403 15.242C115.28 15.3498 115.137 15.4319 114.982 15.4833C114.827 15.5346 114.664 15.5543 114.501 15.541H113.769V11.5196Z" fill="#12110B"/>
<path d="M125.281 9.05577C124.798 9.02516 124.313 9.09603 123.858 9.26384C123.404 9.43165 122.989 9.69269 122.642 10.0302C121.995 10.7804 121.668 11.7536 121.729 12.7421V20.0682C121.668 21.0581 121.996 22.0326 122.642 22.7852C123.377 23.4114 124.311 23.7553 125.276 23.7553C126.242 23.7553 127.176 23.4114 127.911 22.7852C128.558 22.0334 128.887 21.0588 128.828 20.0682V12.7421C128.89 11.7536 128.562 10.7804 127.916 10.0302C127.569 9.69335 127.155 9.4327 126.701 9.26491C126.248 9.09712 125.764 9.02589 125.281 9.05577ZM124.25 12.6029C124.25 11.7573 124.575 11.3603 125.281 11.3603C125.988 11.3603 126.312 11.7573 126.312 12.6029V20.2074C126.312 21.0581 125.988 21.4499 125.281 21.4499C124.575 21.4499 124.25 21.0581 124.25 20.2074V12.6029Z" fill="#12110B"/>
<path d="M136.931 20.2273C136.931 21.0625 136.611 21.4492 135.9 21.4492C135.188 21.4492 134.869 21.0625 134.869 20.2273V9.21484H132.337V20.0881C132.273 21.079 132.594 22.0565 133.234 22.8154C133.956 23.434 134.875 23.774 135.825 23.774C136.775 23.774 137.694 23.434 138.416 22.8154C139.056 22.0562 139.377 21.0789 139.313 20.0881V9.21484H136.9L136.931 20.2273Z" fill="#12110B"/>
<path d="M146.515 9.21484H143.065V23.5939H145.597V18.3042H146.515C148.829 18.3042 150 17.0824 150 14.6953V12.8444C150 10.4367 148.829 9.21484 146.515 9.21484ZM145.597 11.5194H146.515C146.646 11.5075 146.778 11.5245 146.901 11.569C147.025 11.6135 147.138 11.6846 147.231 11.7772C147.416 12.0493 147.5 12.3777 147.468 12.7052V14.8139C147.5 15.1414 147.416 15.4698 147.231 15.7419C147.138 15.8345 147.025 15.9056 146.901 15.9501C146.778 15.9946 146.646 16.0115 146.515 15.9997H145.597V11.5194Z" fill="#12110B"/>
<path d="M49.579 28.3116C49.5326 27.6305 49.7442 26.9568 50.1719 26.4247C50.6549 25.9995 51.2762 25.7649 51.9197 25.7649C52.5631 25.7649 53.1845 25.9995 53.6674 26.4247C54.0951 26.9568 54.3068 27.6305 54.2603 28.3116V28.6313H52.76V28.2085C52.76 27.5434 52.492 27.2135 51.9609 27.2135C51.4299 27.2135 51.167 27.5434 51.167 28.2085C51.1678 28.5861 51.2789 28.9552 51.4866 29.2706C51.701 29.6075 51.9613 29.9129 52.26 30.178C52.5641 30.4461 52.8683 30.7296 53.1777 31.0235C53.5017 31.3392 53.7656 31.7113 53.9562 32.1216C54.1719 32.5757 54.2812 33.0729 54.2758 33.5755C54.3227 34.2593 54.1048 34.9349 53.6674 35.4625C53.1771 35.8849 52.5514 36.1172 51.9042 36.1172C51.257 36.1172 50.6313 35.8849 50.141 35.4625C49.7036 34.9349 49.4858 34.2593 49.5326 33.5755V32.9517H51.0381V33.6735C51.0381 34.3334 51.3113 34.6582 51.863 34.6582C52.4146 34.6582 52.6879 34.3334 52.6879 33.6735C52.6861 33.296 52.5751 32.9271 52.3682 32.6114C52.1537 32.2761 51.8934 31.9725 51.5949 31.7092C51.2907 31.4411 50.9814 31.1575 50.6772 30.8637C50.3514 30.5483 50.0859 30.1761 49.8935 29.7655C49.6794 29.3111 49.5718 28.8139 49.579 28.3116Z" fill="#12110B"/>
<path d="M58.3093 36.0038V32.6475L56.3037 25.8833H57.9638L59.1806 30.4924L60.3921 25.8833H61.9388L59.9281 32.6475V36.0038H58.3093Z" fill="#12110B"/>
<path d="M63.9788 28.3119C63.9323 27.6308 64.144 26.9571 64.5717 26.425C65.0554 25.9994 65.6777 25.7646 66.322 25.7646C66.9663 25.7646 67.5886 25.9994 68.0724 26.425C68.4978 26.9583 68.7092 27.6311 68.6653 28.3119V28.6316H67.1598V28.2088C67.1598 27.5437 66.8917 27.2138 66.3658 27.2138C65.84 27.2138 65.5667 27.5437 65.5667 28.2088C65.5676 28.5864 65.6787 28.9556 65.8864 29.2709C66.1008 29.6078 66.361 29.9132 66.6597 30.1783C66.9639 30.4464 67.2681 30.7299 67.5774 31.0238C67.9015 31.3406 68.1669 31.7124 68.3611 32.122C68.5752 32.5763 68.6828 33.0736 68.6756 33.5758C68.7217 34.2587 68.506 34.9334 68.0724 35.4628C67.5812 35.8856 66.9546 36.1181 66.3066 36.1181C65.6585 36.1181 65.0319 35.8856 64.5407 35.4628C64.1057 34.9339 63.8882 34.2593 63.9324 33.5758V32.952H65.4378V33.6738C65.4378 34.3337 65.7111 34.6585 66.2627 34.6585C66.8144 34.6585 67.0876 34.3337 67.0876 33.6738C67.0859 33.2963 66.9749 32.9275 66.768 32.6117C66.5535 32.2765 66.2932 31.9728 65.9946 31.7095C65.6905 31.4414 65.3863 31.1579 65.0769 30.864C64.7529 30.5483 64.489 30.1761 64.2984 29.7658C64.0802 29.3127 63.9708 28.8148 63.9788 28.3119Z" fill="#12110B"/>
<path d="M70.8623 27.3271V25.8835H75.7756V27.3271H74.1155V36.0041H72.5224V27.3271H70.8623Z" fill="#12110B"/>
<path d="M79.7952 27.3269V30.1367H81.9761V31.5854H79.7952V34.5448H82.5432V35.9935H78.2021V25.8833H82.5432V27.3269H79.7952Z" fill="#12110B"/>
<path d="M87.4567 25.8833L88.6116 33.0703L89.6994 25.8833H91.9112V36.0038H90.4058V28.7447L89.3076 36.0038H87.8022L86.6164 28.8478V36.0038H85.2295V25.8833H87.4567Z" fill="#12110B"/>
<path d="M94.6129 28.3119C94.569 27.6311 94.7804 26.9583 95.2058 26.425C95.6896 25.9994 96.3118 25.7646 96.9562 25.7646C97.6005 25.7646 98.2227 25.9994 98.7065 26.425C99.1342 26.9571 99.3459 27.6308 99.2994 28.3119V28.6316H97.794V28.2088C97.794 27.5437 97.531 27.2138 97 27.2138C96.469 27.2138 96.206 27.5437 96.206 28.2088C96.2044 28.5868 96.3157 28.9566 96.5257 29.2709C96.7401 29.6078 97.0004 29.9132 97.299 30.1783C97.6032 30.4464 97.9074 30.7299 98.2167 31.0238C98.5408 31.3395 98.8046 31.7116 98.9952 32.122C99.211 32.576 99.3203 33.0732 99.3149 33.5758C99.3617 34.2596 99.1439 34.9352 98.7065 35.4628C98.2162 35.8852 97.5905 36.1176 96.9433 36.1176C96.2961 36.1176 95.6704 35.8852 95.18 35.4628C94.7427 34.9352 94.5248 34.2596 94.5717 33.5758V32.952H96.0771V33.6738C96.0771 34.3337 96.3504 34.6585 96.902 34.6585C97.4537 34.6585 97.7218 34.3337 97.7218 33.6738C97.7219 33.2968 97.6126 32.9279 97.4073 32.6117C97.1928 32.2765 96.9325 31.9728 96.6339 31.7095C96.3298 31.4414 96.0204 31.1579 95.7162 30.864C95.3905 30.5486 95.1249 30.1764 94.9326 29.7658C94.7168 29.3118 94.6075 28.8146 94.6129 28.3119Z" fill="#12110B"/>
<path d="M103.874 36.0038V25.8833H105.467V34.5551H108.081V36.0038H103.874Z" fill="#12110B"/>
<path d="M110.513 34.4727H112.059V36.0193H110.513V34.4727Z" fill="#12110B"/>
<path d="M117.277 25.8833C118.86 25.8833 119.649 26.7134 119.649 28.3838V29.6985C119.649 31.3689 118.86 32.199 117.277 32.199H116.524V36.0038H114.937V25.8833H117.277ZM117.277 27.3269H116.524V30.7554H117.277C117.385 30.7633 117.493 30.748 117.594 30.7107C117.696 30.6733 117.788 30.6147 117.865 30.5388C118.015 30.324 118.085 30.0628 118.061 29.8016V28.2807C118.085 28.0195 118.015 27.7583 117.865 27.5434C117.788 27.4675 117.696 27.4089 117.594 27.3716C117.493 27.3342 117.385 27.319 117.277 27.3269Z" fill="#12110B"/>
</svg>
