<svg width="0" height="0">
	<symbol xmlns="http://www.w3.org/2000/svg" id="favorites" viewBox="0 0 48 48">
		<path stroke-linecap="round" stroke-linejoin="round" stroke-width="2" d="M15 8C8.925 8 4 12.925 4 19c0 11 13 21 20 23.326C31 40 44 30 44 19c0-6.075-4.925-11-11-11c-3.72 0-7.01 1.847-9 4.674A10.987 10.987 0 0 0 15 8" />
	</symbol>
	<symbol viewBox="0 0 20 21" id="search" xmlns="http://www.w3.org/2000/svg">
		<path fill-rule="evenodd" clip-rule="evenodd" d="M13.0108 14.1188C11.7372 15.2287 10.0721 15.9009 8.25 15.9009C4.24594 15.9009 1 12.6549 1 8.65088C1 4.64681 4.24594 1.40088 8.25 1.40088C12.2541 1.40088 15.5 4.64681 15.5 8.65088C15.5 10.473 14.8278 12.1381 13.7179 13.4117L19.8536 19.5473L19.1464 20.2544L13.0108 14.1188ZM14.5 8.65088C14.5 12.1027 11.7018 14.9009 8.25 14.9009C4.79822 14.9009 2 12.1027 2 8.65088C2 5.1991 4.79822 2.40088 8.25 2.40088C11.7018 2.40088 14.5 5.1991 14.5 8.65088Z" fill="currentColor" />
		<symbol xmlns="http://www.w3.org/2000/svg" id="close" viewBox="0 0 24 24">
			<path fill="currentColor" d="m6.4 18.308l-.708-.708l5.6-5.6l-5.6-5.6l.708-.708l5.6 5.6l5.6-5.6l.708.708l-5.6 5.6l5.6 5.6l-.708.708l-5.6-5.6z" />
		</symbol>
		<symbol id="arrow-left" xmlns="http://www.w3.org/2000/svg" width="25" height="25" viewBox="0 0 25 25">
			<path fill-rule="evenodd" clip-rule="evenodd" d="M16.6995 3.84798C16.8422 3.99067 16.8422 4.22202 16.6995 4.36471L8.9952 12.069L8.98688 12.0771C8.96337 12.0991 8.94463 12.1258 8.93182 12.1554C8.91901 12.185 8.9124 12.2169 8.9124 12.2491C8.9124 12.2813 8.91901 12.3132 8.93182 12.3428C8.94463 12.3724 8.96337 12.3991 8.98688 12.4211L8.9952 12.4292L16.6995 20.1335C16.8422 20.2762 16.8422 20.5075 16.6995 20.6502C16.5568 20.7929 16.3255 20.7929 16.1828 20.6502L8.48209 12.9495C8.38796 12.86 8.31283 12.7524 8.2612 12.6331C8.20872 12.5119 8.18164 12.3812 8.18164 12.2491C8.18164 12.117 8.20872 11.9863 8.2612 11.865C8.31283 11.7458 8.38796 11.6382 8.48209 11.5487L16.1828 3.84798C16.3255 3.70529 16.5568 3.70529 16.6995 3.84798Z" />
		</symbol>
		<symbol id="arrow-right" xmlns="http://www.w3.org/2000/svg" width="25" height="25" viewBox="0 0 25 25">
			<path fill-rule="evenodd" clip-rule="evenodd" d="M8.2927 3.84798C8.15001 3.99067 8.15001 4.22202 8.2927 4.36471L15.997 12.069L16.0053 12.0771C16.0288 12.0991 16.0476 12.1258 16.0604 12.1554C16.0732 12.185 16.0798 12.2169 16.0798 12.2491C16.0798 12.2813 16.0732 12.3132 16.0604 12.3428C16.0476 12.3724 16.0288 12.3991 16.0053 12.4211L15.997 12.4292L8.29269 20.1335C8.15 20.2762 8.15 20.5075 8.29269 20.6502C8.43538 20.7929 8.66673 20.7929 8.80942 20.6502L16.5101 12.9495C16.6042 12.86 16.6794 12.7524 16.731 12.6331C16.7835 12.5119 16.8105 12.3812 16.8105 12.2491C16.8105 12.117 16.7835 11.9863 16.731 11.865C16.6794 11.7458 16.6042 11.6382 16.5101 11.5487L8.80942 3.84798C8.66673 3.70529 8.43539 3.70529 8.2927 3.84798Z" />
		</symbol>
		<symbol id="arrow-header" xmlns="http://www.w3.org/2000/svg" width="18" height="18" viewBox="0 0 18 18" fill="none">
			<path d="M4.58965 14.1487C4.43027 14.1487 4.2709 14.0955 4.16465 13.9627C3.92558 13.7237 3.92558 13.3518 4.16465 13.1127L12.2131 5.06426H5.78496C5.46621 5.06426 5.20058 4.79863 5.20058 4.47988C5.20058 4.16113 5.46621 3.89551 5.78496 3.89551H13.6209C13.9397 3.89551 14.2053 4.16113 14.2053 4.47988V12.369C14.2053 12.6877 13.9397 12.9534 13.6209 12.9534C13.3022 12.9534 13.0365 12.6877 13.0365 12.369V5.96738L5.01465 13.9893C4.9084 14.0955 4.74902 14.1487 4.58965 14.1487Z" fill="white" />
		</symbol>
		<symbol id="lang-icon" xmlns="http://www.w3.org/2000/svg" width="12" height="11" viewBox="0 0 12 11" fill="none">
			<path d="M2.23556 3.1083C2.19334 3.0684 2.14366 3.0372 2.08937 3.01649C2.03509 2.99579 1.97726 2.98597 1.91918 2.98762C1.8611 2.98926 1.80392 3.00233 1.75089 3.02607C1.69786 3.04981 1.65003 3.08377 1.61012 3.126C1.57022 3.16823 1.53902 3.2179 1.51831 3.27219C1.4976 3.32647 1.48779 3.3843 1.48943 3.44238C1.49108 3.50046 1.50414 3.55765 1.52789 3.61067C1.55163 3.6637 1.58559 3.71153 1.62781 3.75144L5.60871 7.51117C5.69084 7.58882 5.79957 7.63208 5.91259 7.63208C6.0256 7.63208 6.13434 7.58882 6.21646 7.51117L10.1978 3.75144C10.241 3.7118 10.2758 3.66398 10.3003 3.61075C10.3248 3.55753 10.3385 3.49997 10.3406 3.4414C10.3427 3.38284 10.3331 3.32445 10.3124 3.26962C10.2918 3.2148 10.2604 3.16462 10.2202 3.12202C10.1799 3.07941 10.1316 3.04523 10.0781 3.02144C10.0245 2.99766 9.96678 2.98476 9.90819 2.98348C9.84961 2.98221 9.79136 2.99258 9.73682 3.01401C9.68228 3.03544 9.63254 3.06749 9.59049 3.1083L5.91259 6.58141L2.23556 3.1083Z" fill="white" />
		</symbol>
	</symbol>
	<symbol id="telegram-icon" xmlns="http://www.w3.org/2000/svg" width="18" height="19" viewBox="0 0 18 19" fill="none">
		<path d="M4.33109 11.1676L6.56982 16.764L9.48436 13.8495L14.4815 17.8213L18 2.00098L0 9.4986L4.33109 11.1676ZM12.8565 6.53998L7.34697 11.5653L6.66074 14.1516L5.39305 10.9818L12.8565 6.53998Z" fill="#696969" />
	</symbol>
	<symbol id="instagram-icon" xmlns="http://www.w3.org/2000/svg" width="18" height="19" viewBox="0 0 18 19" fill="none">
		<g clip-path="url(#clip0_1123_655)">
			<path d="M15.3633 0.911133H2.63672C1.18295 0.911133 0 2.09409 0 3.54785V16.2744C0 17.7282 1.18295 18.9111 2.63672 18.9111H15.3633C16.817 18.9111 18 17.7282 18 16.2744V3.54785C18 2.09409 16.817 0.911133 15.3633 0.911133ZM9.03516 14.6221C6.41808 14.6221 4.28906 12.4931 4.28906 9.87598C4.28906 7.2589 6.41808 5.12988 9.03516 5.12988C11.6522 5.12988 13.7812 7.2589 13.7812 9.87598C13.7812 12.4931 11.6522 14.6221 9.03516 14.6221ZM14.3086 6.18457C13.4363 6.18457 12.7266 5.47485 12.7266 4.60254C12.7266 3.73022 13.4363 3.02051 14.3086 3.02051C15.1809 3.02051 15.8906 3.73022 15.8906 4.60254C15.8906 5.47485 15.1809 6.18457 14.3086 6.18457Z" fill="#696969" />
			<path d="M14.3086 4.0752C14.0176 4.0752 13.7812 4.31154 13.7812 4.60254C13.7812 4.89354 14.0176 5.12988 14.3086 5.12988C14.5996 5.12988 14.8359 4.89354 14.8359 4.60254C14.8359 4.31154 14.5996 4.0752 14.3086 4.0752Z" fill="#696969" />
			<path d="M9.03516 6.18457C6.99994 6.18457 5.34375 7.84076 5.34375 9.87598C5.34375 11.9112 6.99994 13.5674 9.03516 13.5674C11.0704 13.5674 12.7266 11.9112 12.7266 9.87598C12.7266 7.84076 11.0704 6.18457 9.03516 6.18457Z" fill="#696969" />
		</g>
		<defs>
			<clipPath id="clip0_1123_655">
				<rect width="18" height="18" fill="white" transform="translate(0 0.911133)" />
			</clipPath>
		</defs>
	</symbol>
	<symbol id="facebook-icon" xmlns="http://www.w3.org/2000/svg" width="18" height="19" viewBox="0 0 18 19" fill="none">
		<g clip-path="url(#clip0_1123_662)">
			<path d="M10.8467 18.9111V10.7138H13.5122L13.9084 7.50434H10.8467V5.46002C10.8467 4.53387 11.0954 3.89977 12.3766 3.89977H14V1.03832C13.2101 0.950499 12.4162 0.908094 11.6218 0.911302C9.26575 0.911302 7.64814 2.40354 7.64814 5.14297V7.49834H5V10.7078H7.65392V18.9111H10.8467Z" fill="#696969" />
		</g>
		<defs>
			<clipPath id="clip0_1123_662">
				<rect width="18" height="18" fill="white" transform="translate(0 0.911133)" />
			</clipPath>
		</defs>
	</symbol>
	<symbol id="complex-icon" xmlns="http://www.w3.org/2000/svg" width="25" height="25" viewBox="0 0 25 25" fill="none">
		<path fill-rule="evenodd" clip-rule="evenodd" d="M0.87793 0.387207H24.8779V24.3871H0.87793V0.387207ZM3.9747 3.48397V21.2904H21.7811V3.48397H3.9747Z" fill="#F18331" />
		<path fill-rule="evenodd" clip-rule="evenodd" d="M12.8779 0.387207C13.733 0.387207 14.4263 1.08044 14.4263 1.93559V1.94427C14.4263 2.79941 13.733 3.49266 12.8779 3.49266C12.0228 3.49266 11.3295 2.79941 11.3295 1.94427V1.93559C11.3295 1.08044 12.0228 0.387207 12.8779 0.387207ZM12.8779 5.60432C13.733 5.60432 14.4263 6.29755 14.4263 7.1527V7.17006C14.4263 8.02521 13.733 8.71845 12.8779 8.71845C12.0228 8.71845 11.3295 8.02521 11.3295 7.17006V7.1527C11.3295 6.29755 12.0228 5.60432 12.8779 5.60432ZM11.7787 13.4864C12.0593 13.7691 12.4481 13.9443 12.8779 13.9443C13.3077 13.9443 13.6966 13.7691 13.9771 13.4864C14.2599 13.2059 14.4349 12.817 14.4349 12.3872C14.4349 11.9574 14.2599 11.5685 13.9771 11.2879C13.6966 11.0053 13.3077 10.8301 12.8779 10.8301C12.4481 10.8301 12.0593 11.0053 11.7787 11.288C11.4959 11.5685 11.3208 11.9574 11.3208 12.3872C11.3208 12.817 11.4959 13.2058 11.7787 13.4864ZM0.87793 12.3872C0.87793 11.532 1.57117 10.8389 2.42632 10.8389H2.435C3.29015 10.8389 3.98339 11.532 3.98339 12.3872C3.98339 13.2424 3.29015 13.9355 2.435 13.9355H2.42632C1.57117 13.9355 0.87793 13.2424 0.87793 12.3872ZM6.09505 12.3872C6.09505 11.532 6.78828 10.8389 7.64343 10.8389H7.66079C8.51594 10.8389 9.20919 11.532 9.20919 12.3872C9.20919 13.2424 8.51594 13.9355 7.66079 13.9355H7.64343C6.78828 13.9355 6.09505 13.2424 6.09505 12.3872ZM16.5466 12.3872C16.5466 11.532 17.2399 10.8389 18.0951 10.8389H18.1124C18.9676 10.8389 19.6607 11.532 19.6607 12.3872C19.6607 13.2424 18.9676 13.9355 18.1124 13.9355H18.0951C17.2399 13.9355 16.5466 13.2424 16.5466 12.3872ZM21.7724 12.3872C21.7724 11.532 22.4657 10.8389 23.3209 10.8389H23.3295C24.1846 10.8389 24.8779 11.532 24.8779 12.3872C24.8779 13.2424 24.1846 13.9355 23.3295 13.9355H23.3209C22.4657 13.9355 21.7724 13.2424 21.7724 12.3872ZM12.8779 16.0559C13.733 16.0559 14.4263 16.7491 14.4263 17.6043V17.6217C14.4263 18.4768 13.733 19.17 12.8779 19.17C12.0228 19.17 11.3295 18.4768 11.3295 17.6217V17.6043C11.3295 16.7491 12.0228 16.0559 12.8779 16.0559ZM12.8779 21.2817C13.733 21.2817 14.4263 21.9749 14.4263 22.8301V22.8388C14.4263 23.694 13.733 24.3871 12.8779 24.3871C12.0228 24.3871 11.3295 23.694 11.3295 22.8388V22.8301C11.3295 21.9749 12.0228 21.2817 12.8779 21.2817Z" fill="#F18331" />
	</symbol>
	<symbol id="focus-icon" xmlns="http://www.w3.org/2000/svg" width="25" height="25" viewBox="0 0 25 25" fill="none">
		<path fill-rule="evenodd" clip-rule="evenodd" d="M0.0126953 0.387207H11.2385V11.613H0.0126953V0.387207ZM3.10947 3.48398V8.51625H8.14171V3.48398H3.10947Z" fill="#F18331" />
		<path fill-rule="evenodd" clip-rule="evenodd" d="M12.7869 1.93559C12.7869 1.08044 13.4802 0.387207 14.3352 0.387207H14.3468C15.202 0.387207 15.8952 1.08044 15.8952 1.93559C15.8952 2.36611 15.7195 2.7556 15.4359 3.03625C15.1552 3.31984 14.7658 3.49555 14.3352 3.49555C13.4802 3.49555 12.7869 2.80232 12.7869 1.94717V1.93559ZM20.9043 1.93559C20.9043 1.08044 21.5976 0.387207 22.4527 0.387207H22.4642C23.3194 0.387207 24.0127 1.08044 24.0127 1.93559V1.94717C24.0127 2.80232 23.3194 3.49555 22.4642 3.49555C22.0337 3.49555 21.6442 3.31984 21.3637 3.03625C21.08 2.7556 20.9043 2.36611 20.9043 1.93559ZM22.4642 8.50464C23.3194 8.50464 24.0127 9.19788 24.0127 10.053V10.0646C24.0127 10.9198 23.3194 11.613 22.4642 11.613H22.4527C21.5976 11.613 20.9043 10.9198 20.9043 10.0646C20.9043 9.63414 21.08 9.24465 21.3637 8.96396C21.6442 8.68035 22.0337 8.50464 22.4642 8.50464ZM15.4359 8.96395C15.1552 8.68034 14.7658 8.50464 14.3352 8.50464C13.4802 8.50464 12.7869 9.19788 12.7869 10.053V10.0646C12.7869 10.9198 13.4802 11.613 14.3352 11.613H14.3468C15.202 11.613 15.8952 10.9198 15.8952 10.0646C15.8952 9.63402 15.7195 9.24465 15.4359 8.96395ZM0.0126953 14.7098C0.0126953 13.8546 0.705938 13.1613 1.56109 13.1613H1.57267C2.42782 13.1613 3.12105 13.8546 3.12105 14.7098C3.12105 15.1403 2.94534 15.5298 2.66174 15.8105C2.3811 16.094 1.99161 16.2697 1.56109 16.2697C0.705938 16.2697 0.0126953 15.5765 0.0126953 14.7214V14.7098ZM8.13014 14.7098C8.13014 13.8546 8.82338 13.1613 9.67853 13.1613H9.69011C10.5452 13.1613 11.2385 13.8546 11.2385 14.7098V14.7214C11.2385 15.5765 10.5452 16.2697 9.69011 16.2697C9.25958 16.2697 8.8701 16.094 8.58945 15.8105C8.30584 15.5298 8.13014 15.1403 8.13014 14.7098ZM12.7869 14.7098C12.7869 13.8546 13.4802 13.1613 14.3352 13.1613H14.3468C15.202 13.1613 15.8952 13.8546 15.8952 14.7098C15.8952 15.1403 15.7195 15.5298 15.4359 15.8105C15.1553 16.094 14.7658 16.2697 14.3352 16.2697C13.4802 16.2697 12.7869 15.5765 12.7869 14.7214V14.7098ZM20.9043 14.7098C20.9043 13.8546 21.5976 13.1613 22.4527 13.1613H22.4642C23.3194 13.1613 24.0127 13.8546 24.0127 14.7098V14.7214C24.0127 15.5765 23.3194 16.2697 22.4642 16.2697C22.0337 16.2697 21.6442 16.094 21.3637 15.8105C21.08 15.5298 20.9043 15.1403 20.9043 14.7098ZM2.66173 21.7381C2.38108 21.4545 1.9916 21.2788 1.56109 21.2788C0.705938 21.2788 0.0126953 21.972 0.0126953 22.8272V22.8388C0.0126953 23.694 0.705938 24.3872 1.56109 24.3872H1.57267C2.42782 24.3872 3.12105 23.694 3.12105 22.8388C3.12105 22.4083 2.94534 22.0188 2.66173 21.7381ZM9.69011 21.2788C10.5452 21.2788 11.2385 21.972 11.2385 22.8272V22.8388C11.2385 23.694 10.5452 24.3872 9.69011 24.3872H9.67853C8.82338 24.3872 8.13014 23.694 8.13014 22.8388C8.13014 22.4083 8.30584 22.0188 8.58945 21.7381C8.8701 21.4545 9.25958 21.2788 9.69011 21.2788ZM15.4359 21.7381C15.1552 21.4545 14.7658 21.2788 14.3352 21.2788C13.4802 21.2788 12.7869 21.972 12.7869 22.8272V22.8388C12.7869 23.694 13.4802 24.3872 14.3352 24.3872H14.3468C15.202 24.3872 15.8952 23.694 15.8952 22.8388C15.8952 22.4083 15.7195 22.0188 15.4359 21.7381ZM22.4642 21.2788C23.3194 21.2788 24.0127 21.972 24.0127 22.8272V22.8388C24.0127 23.694 23.3194 24.3872 22.4642 24.3872H22.4527C21.5976 24.3872 20.9043 23.694 20.9043 22.8388C20.9043 22.4083 21.08 22.0188 21.3637 21.7381C21.6442 21.4545 22.0337 21.2788 22.4642 21.2788Z" fill="#F18331" />
	</symbol>
</svg>
